<svg width="1458" height="47" xmlns="http://www.w3.org/2000/svg"><g fill="none"><path fill="#212121" d="M1435.57 46.831H1458V23.846h-22.43z"/><path fill="#FFF" d="M1413.15 46.831h22.42V23.846h-22.42z"/><path fill="#212121" d="M1390.72 46.831h22.42V23.846h-22.42z"/><path fill="#FFF" d="M1368.29 46.831h22.42V23.846h-22.42z"/><path fill="#212121" d="M1345.86 46.831h22.43V23.846h-22.43z"/><path fill="#FFF" d="M1323.44 46.831h22.42V23.846h-22.42z"/><path fill="#212121" d="M1301.01 46.831h22.42V23.846h-22.42z"/><path fill="#FFF" d="M1278.58 46.831h22.43V23.846h-22.43z"/><path fill="#212121" d="M1256.15 46.831h22.43V23.846h-22.43z"/><path fill="#FFF" d="M1233.73 46.831h22.42V23.846h-22.42z"/><path fill="#212121" d="M1211.3 46.831h22.43V23.846h-22.43z"/><path fill="#FFF" d="M1188.87 46.831h22.43V23.846h-22.43z"/><path fill="#212121" d="M1166.45 46.831h22.43V23.846h-22.43z"/><path fill="#FFF" d="M1144.02 46.831h22.43V23.846h-22.43z"/><path fill="#212121" d="M1121.59 46.831h22.43V23.846h-22.43z"/><path fill="#FFF" d="M1099.16 46.831h22.43V23.846h-22.43z"/><path fill="#212121" d="M1076.74 46.831h22.42V23.846h-22.42z"/><path fill="#FFF" d="M1054.31 46.831h22.42V23.846h-22.42z"/><path fill="#212121" d="M1031.88 46.831h22.43V23.846h-22.43z"/><path fill="#FFF" d="M1009.456 46.831h22.424V23.846h-22.424z"/><path fill="#212121" d="M987.026 46.831h22.427V23.846h-22.427z"/><path fill="#FFF" d="M964.596 46.831h22.427V23.846h-22.427z"/><path fill="#212121" d="M942.174 46.831h22.428V23.846h-22.428z"/><path fill="#FFF" d="M919.748 46.831h22.427V23.846h-22.427z"/><path fill="#212121" d="M897.323 46.831h22.427V23.846h-22.427z"/><path fill="#FFF" d="M874.889 46.831h22.427V23.846h-22.427z"/><path fill="#212121" d="M852.46 46.831h22.427V23.846H852.46z"/><path fill="#FFF" d="M830.034 46.831h22.427V23.846h-22.427z"/><path fill="#212121" d="M807.608 46.831h22.427V23.846h-22.427z"/><path fill="#FFF" d="M785.183 46.831h22.427V23.846h-22.427z"/><path fill="#212121" d="M762.756 46.831h22.428V23.846h-22.428z"/><path fill="#FFF" d="M740.327 46.831h22.427V23.846h-22.427z"/><path fill="#212121" d="M717.897 46.831h22.427V23.846h-22.427z"/><path fill="#FFF" d="M695.471 46.831h22.427V23.846h-22.427z"/><path fill="#212121" d="M673.049 46.831h22.428V23.846h-22.428z"/><path fill="#FFF" d="M650.624 46.831h22.427V23.846h-22.427z"/><path fill="#212121" d="M628.19 46.831h22.427V23.846H628.19z"/><path fill="#FFF" d="M605.764 46.831h22.427V23.846h-22.427z"/><path fill="#212121" d="M583.337 46.831h22.428V23.846h-22.428z"/><path fill="#FFF" d="M560.909 46.831h22.427V23.846h-22.427z"/><path fill="#212121" d="M538.483 46.831h22.427V23.846h-22.427z"/><path fill="#FFF" d="M516.057 46.831h22.427V23.846h-22.427z"/><path fill="#212121" d="M493.627 46.831h22.428V23.846h-22.428z"/><path fill="#FFF" d="M471.198 46.831h22.427V23.846h-22.427z"/><path fill="#212121" d="M448.773 46.831H471.2V23.846h-22.427z"/><path fill="#FFF" d="M426.346 46.831h22.427V23.846h-22.427z"/><path fill="#212121" d="M403.919 46.831h22.428V23.846h-22.428z"/><path fill="#FFF" d="M381.493 46.831h22.427V23.846h-22.427z"/><path fill="#212121" d="M359.065 46.831h22.427V23.846h-22.427z"/><path fill="#FFF" d="M336.637 46.831h22.427V23.846h-22.427z"/><path fill="#212121" d="M314.21 46.831h22.427V23.846H314.21z"/><path fill="#FFF" d="M291.783 46.831h22.427V23.846h-22.427z"/><path fill="#212121" d="M269.356 46.831h22.427V23.846h-22.427z"/><path fill="#FFF" d="M246.931 46.831h22.427V23.846h-22.427z"/><path fill="#212121" d="M224.501 46.831h22.427V23.846h-22.427z"/><path fill="#FFF" d="M202.073 46.831H224.5V23.846h-22.427z"/><path fill="#212121" d="M179.647 46.831h22.427V23.846h-22.427z"/><path fill="#FFF" d="M157.219 46.831h22.427V23.846h-22.427z"/><path fill="#212121" d="M134.793 46.831h22.428V23.846h-22.428z"/><path fill="#FFF" d="M112.366 46.831h22.427V23.846h-22.427z"/><path fill="#212121" d="M89.938 46.831h22.427V23.846H89.938z"/><path fill="#FFF" d="M67.51 46.831h22.427V23.846H67.51z"/><path fill="#212121" d="M45.084 46.831h22.428V23.846H45.084z"/><path fill="#FFF" d="M22.657 46.831h22.427V23.846H22.657z"/><path fill="#212121" d="M.231 46.831h22.427V23.846H.231z"/><path fill="#FFF" d="M22.656.862H.228v22.985h22.428z"/><path fill="#212121" d="M45.085.862H22.658v22.985h22.427z"/><path fill="#FFF" d="M67.511.862H45.084v22.985h22.427z"/><path fill="#212121" d="M89.939.862H67.512v22.985h22.427z"/><path fill="#FFF" d="M112.365.862H89.938v22.985h22.427z"/><path fill="#212121" d="M134.792.862h-22.427v22.985h22.427z"/><path fill="#FFF" d="M157.22.862h-22.427v22.985h22.427z"/><path fill="#212121" d="M179.648.862h-22.427v22.985h22.427z"/><path fill="#FFF" d="M202.074.862h-22.428v22.985h22.428z"/><path fill="#212121" d="M224.501.862h-22.427v22.985h22.427z"/><path fill="#FFF" d="M246.927.862H224.5v22.985h22.427z"/><path fill="#212121" d="M269.355.862h-22.427v22.985h22.427z"/><path fill="#FFF" d="M291.786.862h-22.428v22.985h22.428z"/><path fill="#212121" d="M314.21.862h-22.427v22.985h22.427z"/><path fill="#FFF" d="M336.637.862H314.21v22.985h22.427z"/><path fill="#212121" d="M359.064.862h-22.427v22.985h22.427z"/><path fill="#FFF" d="M381.492.862h-22.428v22.985h22.428z"/><path fill="#212121" d="M403.919.862h-22.427v22.985h22.427z"/><path fill="#FFF" d="M426.347.862H403.92v22.985h22.427z"/><path fill="#212121" d="M448.774.862h-22.427v22.985h22.427z"/><path fill="#FFF" d="M471.201.862h-22.428v22.985h22.428z"/><path fill="#212121" d="M493.627.862H471.2v22.985h22.427z"/><path fill="#FFF" d="M516.052.862h-22.427v22.985h22.427z"/><path fill="#212121" d="M538.482.862h-22.427v22.985h22.427z"/><path fill="#FFF" d="M560.912.862h-22.428v22.985h22.428z"/><path fill="#212121" d="M583.337.862H560.91v22.985h22.427z"/><path fill="#FFF" d="M605.763.862h-22.427v22.985h22.427z"/><path fill="#212121" d="M628.192.862h-22.427v22.985h22.427z"/><path fill="#FFF" d="M650.619.862h-22.428v22.985h22.428z"/><path fill="#212121" d="M673.044.862h-22.427v22.985h22.427z"/><path fill="#FFF" d="M695.478.862h-22.427v22.985h22.427z"/><path fill="#212121" d="M717.904.862h-22.427v22.985h22.427z"/><path fill="#FFF" d="M740.326.862h-22.428v22.985h22.428z"/><path fill="#212121" d="M762.751.862h-22.427v22.985h22.427z"/><path fill="#FFF" d="M785.181.862h-22.427v22.985h22.427z"/><path fill="#212121" d="M807.611.862h-22.427v22.985h22.427z"/><path fill="#FFF" d="M830.038.862H807.61v22.985h22.428z"/><path fill="#212121" d="M852.462.862h-22.427v22.985h22.427z"/><path fill="#FFF" d="M874.888.862h-22.427v22.985h22.427z"/><path fill="#212121" d="M897.314.862h-22.427v22.985h22.427z"/><path fill="#FFF" d="M919.744.862h-22.428v22.985h22.428z"/><path fill="#212121" d="M942.177.862H919.75v22.985h22.427z"/><path fill="#FFF" d="M964.602.862h-22.427v22.985h22.427z"/><path fill="#212121" d="M987.029.862h-22.427v22.985h22.427z"/><path fill="#FFF" d="M1009.451.862h-22.428v22.985h22.428z"/><path fill="#212121" d="M1031.88.862h-22.427v22.985h22.427z"/><path fill="#FFF" d="M1054.31.862h-22.43v22.985h22.43z"/><path fill="#212121" d="M1076.74.862h-22.43v22.985h22.43z"/><path fill="#FFF" d="M1099.16.862h-22.43v22.985h22.43z"/><path fill="#212121" d="M1121.59.862h-22.43v22.985h22.43z"/><path fill="#FFF" d="M1144.01.862h-22.42v22.985h22.42z"/><path fill="#212121" d="M1166.44.862h-22.42v22.985h22.42z"/><path fill="#FFF" d="M1188.87.862h-22.42v22.985h22.42z"/><path fill="#212121" d="M1211.3.862h-22.42v22.985h22.42z"/><path fill="#FFF" d="M1233.73.862h-22.43v22.985h22.43z"/><path fill="#212121" d="M1256.15.862h-22.42v22.985h22.42z"/><path fill="#FFF" d="M1278.58.862h-22.43v22.985h22.43z"/><path fill="#212121" d="M1301.01.862h-22.43v22.985h22.43z"/><path fill="#FFF" d="M1323.44.862h-22.43v22.985h22.43z"/><path fill="#212121" d="M1345.86.862h-22.43v22.985h22.43z"/><path fill="#FFF" d="M1368.29.862h-22.43v22.985h22.43z"/><path fill="#212121" d="M1390.72.862h-22.43v22.985h22.43z"/><path fill="#FFF" d="M1413.14.862h-22.43v22.985h22.43z"/><path fill="#212121" d="M1435.57.862h-22.43v22.985h22.43z"/><path fill="#FFF" d="M1458 .862h-22.43v22.985H1458z"/></g></svg>